<svg width="17" height="16" viewBox="0 0 17 16" fill="none" xmlns="http://www.w3.org/2000/svg">
<path d="M16.0502 12.999C15.9821 12.917 15.9152 12.835 15.8496 12.7558C14.9472 11.6644 14.4013 11.0057 14.4013 7.91598C14.4013 6.31637 14.0187 5.00387 13.2644 4.01949C12.7082 3.29228 11.9564 2.74063 10.9654 2.33293C10.9527 2.32584 10.9413 2.31653 10.9318 2.30545C10.5754 1.11189 9.60004 0.3125 8.5 0.3125C7.39996 0.3125 6.42502 1.11189 6.06859 2.30422C6.05908 2.31489 6.04785 2.3239 6.03537 2.33088C3.72291 3.28285 2.59908 5.10928 2.59908 7.91475C2.59908 11.0057 2.05399 11.6644 1.15082 12.7546C1.0852 12.8338 1.01834 12.9141 0.950256 12.9978C0.774381 13.2099 0.66295 13.468 0.62915 13.7414C0.59535 14.0149 0.640596 14.2923 0.759533 14.5408C1.0126 15.074 1.55196 15.405 2.1676 15.405H14.8369C15.4497 15.405 15.9854 15.0744 16.2392 14.5437C16.3587 14.2951 16.4044 14.0175 16.3709 13.7437C16.3373 13.4699 16.226 13.2115 16.0502 12.999Z" fill="#6A6A6A"/>
</svg>
